HIERARCHY
ROOT Hips
{
	OFFSET 0.000000 0.000000 0.000000
	CHANNELS 6 Xposition Yposition Zposition Xrotation Yrotation Zrotation
	JOINT LeftUpLeg_virtual
	{
		OFFSET 0.000000 0.000000 0.000000
		CHANNELS 3 Xrotation Yrotation Zrotation
		JOINT LeftUpLeg
		{
			OFFSET 13.026900 -6.336304 -1.092800
			CHANNELS 3 Xrotation Yrotation Zrotation
			JOINT LeftLeg
			{
				OFFSET 0.524474 -46.096886 9.782700
				CHANNELS 3 Xrotation Yrotation Zrotation
				JOINT LeftFoot
				{
					OFFSET -0.524474 -53.427422 -12.948200
					CHANNELS 3 Xrotation Yrotation Zrotation
					JOINT LeftToeBase
					{
						OFFSET 0.192200 -14.009700 16.364100
						CHANNELS 3 Xrotation Yrotation Zrotation
						JOINT LeftToe_End
						{
							OFFSET -1.784700 -0.561700 9.474800
							CHANNELS 3 Xrotation Yrotation Zrotation
							End Site
							{
								OFFSET 0 0 0
							}
						}
					}
				}
			}
		}
	}
	JOINT RightUpLeg_virtual
	{
		OFFSET 0.000000 0.000000 0.000000
		CHANNELS 3 Xrotation Yrotation Zrotation
		JOINT RightUpLeg
		{
			OFFSET -12.883000 -6.336304 -1.092800
			CHANNELS 3 Xrotation Yrotation Zrotation
			JOINT RightLeg
			{
				OFFSET -0.524587 -46.096825 9.782800
				CHANNELS 3 Xrotation Yrotation Zrotation
				JOINT RightFoot
				{
					OFFSET 0.524587 -53.427383 -12.948300
					CHANNELS 3 Xrotation Yrotation Zrotation
					JOINT RightToeBase
					{
						OFFSET -0.192200 -14.009700 16.364100
						CHANNELS 3 Xrotation Yrotation Zrotation
						JOINT RightToe_End
						{
							OFFSET 1.784700 -0.561700 9.474800
							CHANNELS 3 Xrotation Yrotation Zrotation
							End Site
							{
								OFFSET 0 0 0
							}
						}
					}
				}
			}
		}
	}
	JOINT Spine_virtual
	{
		OFFSET 0.000000 0.000000 0.000000
		CHANNELS 3 Xrotation Yrotation Zrotation
		JOINT Spine
		{
			OFFSET 0.072000 7.257294 -0.789700
			CHANNELS 3 Xrotation Yrotation Zrotation
			JOINT Spine1
			{
				OFFSET 0.000000 12.508769 -0.658067
				CHANNELS 3 Xrotation Yrotation Zrotation
				JOINT Spine1_split
				{
					OFFSET 0.000000 12.508769 -0.658067
					CHANNELS 3 Xrotation Yrotation Zrotation
					JOINT Spine2
					{
						OFFSET 0.000000 12.508769 -0.658067
						CHANNELS 3 Xrotation Yrotation Zrotation
						JOINT Neck_virtual
						{
							OFFSET 0.000000 0.000000 0.000000
							CHANNELS 3 Xrotation Yrotation Zrotation
							JOINT Neck
							{
								OFFSET 0.000000 14.033295 7.520400
								CHANNELS 3 Xrotation Yrotation Zrotation
								JOINT Head
								{
									OFFSET 0.000000 8.198502 5.703100
									CHANNELS 3 Xrotation Yrotation Zrotation
									JOINT HeadTop_End
									{
										OFFSET 0.000000 17.760803 13.332701
										CHANNELS 3 Xrotation Yrotation Zrotation
										End Site
										{
											OFFSET 0 0 0
										}
									}
								}
							}
						}
						JOINT LeftShoulder_virtual
						{
							OFFSET 0.000000 0.000000 0.000000
							CHANNELS 3 Xrotation Yrotation Zrotation
							JOINT LeftShoulder
							{
								OFFSET 6.292450 5.785301 -0.669000
								CHANNELS 3 Xrotation Yrotation Zrotation
								JOINT LeftShoulder_split
								{
									OFFSET 6.292450 5.785301 -0.669000
									CHANNELS 3 Xrotation Yrotation Zrotation
									JOINT LeftArm
									{
										OFFSET 13.907140 -6.093903 1.965100
										CHANNELS 3 Xrotation Yrotation Zrotation
										JOINT LeftForeArm
										{
											OFFSET 34.140198 0.000000 0.000000
											CHANNELS 3 Xrotation Yrotation Zrotation
											JOINT LeftHand
											{
												OFFSET 40.960209 0.000000 0.000000
												CHANNELS 3 Xrotation Yrotation Zrotation
												End Site
												{
													OFFSET 0 0 0
												}
											}
										}
									}
								}
							}
						}
						JOINT RightShoulder_virtual
						{
							OFFSET 0.000000 0.000000 0.000000
							CHANNELS 3 Xrotation Yrotation Zrotation
							JOINT RightShoulder
							{
								OFFSET -6.292450 5.785301 -0.669000
								CHANNELS 3 Xrotation Yrotation Zrotation
								JOINT RightShoulder_split
								{
									OFFSET -6.292450 5.785301 -0.669000
									CHANNELS 3 Xrotation Yrotation Zrotation
									JOINT RightArm
									{
										OFFSET -13.907140 -6.093903 1.965100
										CHANNELS 3 Xrotation Yrotation Zrotation
										JOINT RightForeArm
										{
											OFFSET -34.140198 0.000000 0.000000
											CHANNELS 3 Xrotation Yrotation Zrotation
											JOINT RightHand
											{
												OFFSET -40.960209 0.000000 0.000000
												CHANNELS 3 Xrotation Yrotation Zrotation
												End Site
												{
													OFFSET 0 0 0
												}
											}
										}
									}
								}
							}
						}
					}
				}
			}
		}
	}
}
MOTION
Frames: 7
Frame Time: 0.03333333
4.408669 93.161934 1.334690 0.000000 0.000000 0.000000 -4.543928 -44.109321 16.634012 -28.079763 32.253519 0.958714 58.322951 3.089732 4.483810 -19.063280 19.273539 -7.850620 -0.000048 0.000002 -0.000003 0.000000 0.000000 0.000000 -4.543928 -44.109321 16.634012 -36.102386 10.359272 -35.777911 65.290653 4.055900 -9.353907 -22.825941 -6.283462 20.997009 -1.318684 0.000013 0.000019 0.000000 0.000000 0.000000 -4.543928 -44.109321 16.634012 0.322607 -2.271537 7.132733 -0.023339 -1.710606 5.081375 0.000000 0.000000 0.000000 0.000000 0.000000 0.000000 -0.126063 -1.589342 5.080996 -11.640983 3.400652 8.933794 -20.262729 31.163616 -6.415771 0.000000 0.000000 0.000000 -0.126063 -1.589342 5.080996 -0.465257 1.737085 14.489031 0.000000 0.000000 0.000000 -35.122513 -32.435759 -48.626647 0.000038 -84.342372 0.000021 0.000000 0.000000 0.000000 -0.126063 -1.589342 5.080996 -0.021960 -5.785202 7.001693 0.000000 0.000000 0.000000 119.104142 72.367794 -83.651068 0.000012 26.658730 -0.000003 0.000000 0.000000 0.000000 
5.381496 93.635849 1.654285 0.000000 0.000000 0.000000 -3.059370 -43.012450 17.720741 -28.884382 30.900278 -0.242512 57.676269 3.222042 3.340433 -18.960223 19.687795 -6.763902 -0.000048 0.000002 -0.000003 0.000000 0.000000 0.000000 -3.059370 -43.012450 17.720741 -37.013222 10.607621 -35.586788 64.441715 3.979515 -9.289849 -21.852898 -6.713246 21.100713 -1.795046 -0.000006 -0.000001 0.000000 0.000000 0.000000 -3.059370 -43.012450 17.720741 0.346882 -1.830877 7.135771 0.027306 -1.386095 5.062936 0.000000 0.000000 0.000000 0.000000 0.000000 0.000000 -0.080028 -1.272372 5.054156 -11.424516 3.372335 7.860924 -19.486309 29.446257 -6.823218 0.000000 0.000000 0.000000 -0.080028 -1.272372 5.054156 -0.548174 2.093925 14.135937 0.000000 0.000000 0.000000 -33.452071 -33.142011 -47.500745 0.001067 -87.864387 0.001067 0.000000 0.000000 0.000000 -0.080028 -1.272372 5.054156 -0.011250 -5.892458 7.391186 0.000000 0.000000 0.000000 118.821181 72.028129 -83.805977 -0.000013 25.801448 0.000020 0.000000 0.000000 0.000000 
6.378406 94.591850 1.833965 0.000000 0.000000 0.000000 -1.346706 -42.081998 18.942876 -29.422423 29.970918 -1.416729 56.121858 3.548159 2.297716 -18.394584 19.688860 -5.768065 -0.000048 0.000002 -0.000003 0.000000 0.000000 0.000000 -1.346706 -42.081998 18.942876 -38.693100 10.341833 -35.153170 63.084672 3.587153 -9.306583 -20.621997 -5.577165 20.810195 -2.520435 -0.000014 -0.000003 0.000000 0.000000 0.000000 -1.346706 -42.081998 18.942876 0.447619 -1.301787 7.042988 0.140023 -0.990051 5.027505 0.000000 0.000000 0.000000 0.000000 0.000000 0.000000 0.034597 -0.892062 5.011690 -11.378207 3.392041 6.943751 -18.730009 28.242390 -7.478145 0.000000 0.000000 0.000000 0.034597 -0.892062 5.011690 -0.713339 2.845089 13.378908 0.000000 0.000000 0.000000 -31.471753 -33.569444 -46.626239 179.976359 -89.203527 179.976209 0.000000 0.000000 0.000000 0.034597 -0.892062 5.011690 0.007039 -5.858267 7.548156 0.000000 0.000000 0.000000 118.019631 71.112515 -83.953482 0.000001 25.056460 -0.000006 0.000000 0.000000 0.000000 
7.311697 96.006447 1.878944 0.000000 0.000000 0.000000 0.433001 -41.182800 20.132903 -29.569395 29.896001 -2.569215 53.665483 3.922173 1.838043 -17.365160 19.060360 -4.925611 -0.000048 0.000002 -0.000003 0.000000 0.000000 0.000000 0.433001 -41.182800 20.132903 -40.773463 9.262331 -34.735593 61.102244 3.196867 -9.393259 -19.091571 -3.581131 20.137040 -3.275573 -0.000005 0.000002 0.000000 0.000000 0.000000 0.433001 -41.182800 20.132903 0.564184 -0.802379 6.847809 0.248646 -0.611686 4.969982 0.000000 0.000000 0.000000 0.000000 0.000000 0.000000 0.148294 -0.527142 4.950954 -11.272899 3.482789 6.354411 -18.308192 27.862782 -8.161821 0.000000 0.000000 0.000000 0.148294 -0.527142 4.950954 -0.900982 3.730480 12.504824 0.000000 0.000000 0.000000 -29.630006 -34.106393 -46.030168 -179.998297 -87.986565 -179.998325 0.000000 0.000000 0.000000 0.148294 -0.527142 4.950954 0.026410 -5.749832 7.553608 0.000000 0.000000 0.000000 117.949622 69.470107 -85.203878 -0.000000 24.027706 -0.000002 0.000000 0.000000 0.000000 
8.102486 97.509621 1.835773 0.000000 0.000000 0.000000 1.818498 -40.111133 20.862647 -29.427850 30.196389 -3.564140 50.992365 4.167352 1.839675 -16.174178 18.022499 -4.208611 -0.000048 0.000002 -0.000003 0.000000 0.000000 0.000000 1.818498 -40.111133 20.862647 -42.756305 7.607824 -34.280668 58.943501 3.058996 -9.499769 -17.348593 -1.783758 19.164216 -3.578028 -0.000014 -0.000003 0.000000 0.000000 0.000000 1.818498 -40.111133 20.862647 0.716409 -0.392611 6.641244 0.373153 -0.294162 4.904679 0.000000 0.000000 0.000000 0.000000 0.000000 0.000000 0.278836 -0.218162 4.885680 -11.068353 3.540299 6.038583 -18.046842 27.713561 -8.655220 0.000000 0.000000 0.000000 0.278836 -0.218162 4.885680 -0.992063 4.206200 11.860321 0.000000 0.000000 0.000000 -28.353292 -34.505153 -45.620760 -179.999896 -88.778744 -179.999909 0.000000 0.000000 0.000000 0.278836 -0.218162 4.885680 0.044091 -5.617875 7.488483 0.000000 0.000000 0.000000 118.954547 67.350747 -87.725481 0.000001 22.292426 0.000004 0.000000 0.000000 0.000000 
8.732651 98.713226 1.769382 0.000000 0.000000 0.000000 2.531161 -38.869005 20.848606 -29.312033 30.223177 -4.094006 48.913952 4.238882 1.863110 -15.203709 16.931703 -3.549453 -0.000048 0.000002 -0.000003 0.000000 0.000000 0.000000 2.531161 -38.869005 20.848606 -44.254944 5.781197 -33.758791 57.100798 3.180772 -9.578543 -15.635843 -0.776612 18.149959 -3.294035 -0.000013 -0.000002 0.000000 0.000000 0.000000 2.531161 -38.869005 20.848606 0.976604 -0.030405 6.480459 0.586332 -0.013880 4.828196 0.000000 0.000000 0.000000 0.000000 0.000000 0.000000 0.499180 0.055755 4.811654 -10.782263 3.465066 5.897540 -17.619446 27.180222 -9.096441 0.000000 0.000000 0.000000 0.499180 0.055755 4.811654 -0.979584 4.192210 11.552918 0.000000 0.000000 0.000000 -27.662411 -34.121808 -45.203210 179.800591 -89.882967 179.801451 0.000000 0.000000 0.000000 0.499180 0.055755 4.811654 0.059268 -5.513785 7.461369 0.000000 0.000000 0.000000 120.496859 65.501200 -90.867696 0.000001 19.982852 -0.000004 0.000000 0.000000 0.000000 
9.212605 99.565514 1.712284 0.000000 0.000000 0.000000 2.654792 -37.529355 20.148425 -29.365155 29.821453 -4.067501 47.602672 4.236740 1.764977 -14.540093 15.873344 -2.959862 -0.000048 0.000002 -0.000003 0.000000 0.000000 0.000000 2.654792 -37.529355 20.148425 -45.228625 3.856846 -33.185782 55.679299 3.519049 -9.630315 -14.189577 -0.319094 17.192124 -2.547163 -0.000000 -0.000008 0.000000 0.000000 0.000000 2.654792 -37.529355 20.148425 1.326863 0.284491 6.326371 0.879413 0.220163 4.725278 0.000000 0.000000 0.000000 0.000000 0.000000 0.000000 0.801723 0.284947 4.713319 -10.323304 3.263853 5.921960 -17.096879 26.275410 -9.518704 0.000000 0.000000 0.000000 0.801723 0.284947 4.713319 -0.946780 4.021464 11.528746 0.000000 0.000000 0.000000 -27.264636 -32.676615 -44.572162 179.970785 -89.442925 179.970854 0.000000 0.000000 0.000000 0.801723 0.284947 4.713319 0.073534 -5.453140 7.529755 0.000000 0.000000 0.000000 122.381349 64.638035 -94.377006 0.000007 17.682783 -0.000002 0.000000 0.000000 0.000000 
